<?xml version="1.0" encoding="UTF-8" standalone="no"?>
<svg
   viewBox="0 0 436.5882 322.18937"
   version="1.1"
   id="svg1"
   sodipodi:docname="cc-stripe.svg"
   width="87.535934"
   height="64.598969"
   inkscape:export-filename="cc-stripe.png"
   inkscape:export-xdpi="96"
   inkscape:export-ydpi="96"
   xmlns:inkscape="http://www.inkscape.org/namespaces/inkscape"
   xmlns:sodipodi="http://sodipodi.sourceforge.net/DTD/sodipodi-0.dtd"
   xmlns:xlink="http://www.w3.org/1999/xlink"
   xmlns="http://www.w3.org/2000/svg"
   xmlns:svg="http://www.w3.org/2000/svg">
  <defs
     id="defs1">
    <linearGradient
       id="linearGradient18"
       inkscape:collect="always">
      <stop
         style="stop-color:#501cff;stop-opacity:0.85912699;"
         offset="0.13473056"
         id="stop19" />
      <stop
         style="stop-color:#b800f8;stop-opacity:0.83730161;"
         offset="0.35479042"
         id="stop21" />
      <stop
         style="stop-color:#ffc545;stop-opacity:0.78373015;"
         offset="0.93413174"
         id="stop20" />
    </linearGradient>
    <linearGradient
       id="swatch17"
       inkscape:swatch="solid">
      <stop
         style="stop-color:#4400ff;stop-opacity:1;"
         offset="0"
         id="stop18" />
    </linearGradient>
    <linearGradient
       inkscape:collect="always"
       xlink:href="#linearGradient18"
       id="linearGradient20"
       x1="31.082453"
       y1="249.37656"
       x2="467.67065"
       y2="249.37656"
       gradientUnits="userSpaceOnUse"
       gradientTransform="translate(-31.082453,-88.281883)" />
  </defs>
  <sodipodi:namedview
     id="namedview1"
     pagecolor="#ffffff"
     bordercolor="#000000"
     borderopacity="0.25"
     inkscape:showpageshadow="2"
     inkscape:pageopacity="0.0"
     inkscape:pagecheckerboard="0"
     inkscape:deskcolor="#d1d1d1" />
  <!--!Font Awesome Free 6.5.2 by @fontawesome - https://fontawesome.com License - https://fontawesome.com/license/free Copyright 2024 Fonticons, Inc.-->
  <path
     fill="#6e3dff"
     d="m 373.22228,135.7798 c -6.74589,0 -14.17396,4.81847 -14.17396,16.32522 h 27.81734 c 0,-11.50675 -7.04908,-16.32522 -13.64338,-16.32522 z m -88.98516,1.86986 c -6.21532,0 -10.08095,2.08559 -12.88542,5.0342 l 0.15159,37.97231 c 2.65288,2.66094 6.44271,4.81846 12.73383,4.81846 9.92934,0 16.59944,-10.28417 16.59944,-24.02036 0,-13.37661 -6.82169,-23.87654 -16.59944,-23.80461 z M 400.20586,-4.2397461e-6 H 36.38235 C 16.296261,-4.2397461e-6 -7.7404785e-7,15.462207 -7.7404785e-7,34.520287 V 287.66907 C -7.7404785e-7,306.72715 16.296261,322.18936 36.38235,322.18936 h 363.82351 c 20.08609,0 36.38235,-15.46221 36.38235,-34.52029 V 34.520287 C 436.58821,15.462207 420.29195,-4.2397461e-6 400.20586,-4.2397461e-6 Z M 92.623407,179.14592 c 0,18.41081 -15.38671,28.83881 -37.822492,28.98265 -9.24718,0 -19.40392,-1.72601 -29.409066,-5.82529 v -24.37995 c 9.095587,4.6027 20.540869,8.12664 29.484863,8.12664 5.987929,0 10.308333,-1.51026 10.308333,-6.2568 0,-12.22594 -40.930145,-7.62323 -40.930145,-35.88672 0,-18.12315 14.55294,-28.91073 36.382351,-28.91073 8.943996,0 17.812196,1.2945 26.756186,4.67462 v 24.02037 c -8.18603,-4.17121 -18.570157,-6.54448 -26.756186,-6.54448 -5.684742,0 -9.171384,1.58218 -9.171384,5.53763 0,11.50676 41.15754,6.04105 41.15754,36.46206 z m 52.148033,-40.70518 h -20.46508 v 36.31822 c 0,15.03071 17.05423,10.35609 20.46508,9.06158 v 20.78408 c -3.56244,1.86986 -10.08095,3.38011 -18.87335,3.38011 -15.99307,0 -27.968933,-11.14717 -27.968933,-26.24979 l 0.15159,-81.913773 26.301423,-5.32188 v 22.150533 h 20.38927 z m 56.08946,1.72602 c -3.41085,-1.07876 -14.17396,-2.58903 -20.54087,5.32187 v 60.69818 h -26.90778 v -89.53699 h 23.26954 l 1.66752,7.5513 c 6.29112,-11.00334 18.87335,-8.7739 22.43579,-7.5513 h 0.0758 z m 33.42628,66.02005 H 207.2278 v -89.53699 h 27.05938 z m 0,-102.76977 -27.05938,5.4657 V 88.098657 l 27.05938,-5.46572 z m 56.16525,104.63962 c -9.39877,0 -15.15931,-3.81161 -19.02494,-6.47255 l -0.0758,28.91073 -26.90777,5.3938 V 116.64982 h 23.72432 l 1.36434,6.32871 c 3.71402,-3.23628 10.53572,-7.98281 21.07144,-7.98281 18.87335,0 36.68554,16.18138 36.68554,45.88321 0,32.43469 -17.58481,47.1058 -36.83714,47.17773 z m 121.57769,-37.03739 h -52.67861 c 1.21275,11.93826 10.45993,15.46221 20.91985,15.46221 10.68732,0 19.10073,-2.15753 26.453,-5.68147 v 20.56833 c -7.35227,3.81162 -16.97843,6.61639 -29.86385,6.61639 -26.22561,0 -44.56838,-15.60604 -44.56838,-46.38662 0,-26.03406 15.5383,-46.67432 41.15754,-46.67432 25.54344,0 38.88364,20.64026 38.88364,46.81815 0,2.51711 -0.2274,7.83898 -0.30319,9.27733 z"
     id="path1"
     style="mix-blend-mode:normal;fill:url(#linearGradient20);fill-opacity:1;stroke-width:0.738314" />
</svg>
