<?xml version="1.0" encoding="UTF-8" standalone="no"?>
<svg
   viewBox="0 0 500 500"
   version="1.1"
   id="svg1"
   sodipodi:docname="upload.svg"
   width="500"
   height="500"
   inkscape:version="1.3 (0e150ed6c4, 2023-07-21)"
   xmlns:inkscape="http://www.inkscape.org/namespaces/inkscape"
   xmlns:sodipodi="http://sodipodi.sourceforge.net/DTD/sodipodi-0.dtd"
   xmlns="http://www.w3.org/2000/svg"
   xmlns:svg="http://www.w3.org/2000/svg">
  <defs
     id="defs1" />
  <sodipodi:namedview
     id="namedview1"
     pagecolor="#ffffff"
     bordercolor="#000000"
     borderopacity="0.25"
     inkscape:showpageshadow="2"
     inkscape:pageopacity="0.0"
     inkscape:pagecheckerboard="0"
     inkscape:deskcolor="#d1d1d1"
     inkscape:zoom="0.68272727"
     inkscape:cx="350.06658"
     inkscape:cy="550"
     inkscape:window-width="1920"
     inkscape:window-height="986"
     inkscape:window-x="-11"
     inkscape:window-y="-11"
     inkscape:window-maximized="1"
     inkscape:current-layer="svg1" />
  <!--!Font Awesome Free 6.5.1 by @fontawesome - https://fontawesome.com License - https://fontawesome.com/license/free Copyright 2024 Fonticons, Inc.-->
  <path
     d="m 118.18441,418.48204 c -60.395774,0 -109.3961277,-53.32339 -109.3961277,-119.04756 0,-51.91797 30.5397567,-96.06477 73.0827017,-112.35114 -0.07597,-2.23214 -0.151947,-4.46427 -0.151947,-6.69642 0,-73.08198 54.394203,-132.275068 121.551263,-132.275068 45.04995,0 84.32619,26.620355 105.36976,66.302878 11.54736,-8.43254 25.52577,-13.39285 40.49176,-13.39285 40.26385,0 72.93077,35.54892 72.93077,79.36504 0,10.08598 -1.74731,19.67592 -4.86206,28.6045 44.36621,9.75527 77.79281,52.49665 77.79281,103.67057 0,58.44903 -43.53054,105.82005 -97.24102,105.82005 z m 60.01595,-179.39806 c -7.14115,7.77117 -7.14115,20.3373 0,28.02578 7.14112,7.68849 18.68851,7.77115 25.75366,0 l 29.62813,-32.24205 v 110.86303 c 0,10.99538 8.12875,19.84127 18.2327,19.84127 10.10394,0 18.23269,-8.84589 18.23269,-19.84127 V 234.86771 l 29.62811,32.24205 c 7.14113,7.77115 18.68852,7.77115 25.75367,0 7.06517,-7.77116 7.14114,-20.33729 0,-28.02578 l -60.77563,-66.13753 c -7.14113,-7.77116 -18.6885,-7.77116 -25.75367,0 l -60.77563,66.13753 z"
     id="path1"
     style="stroke-width:0.792498" />
</svg>
